<?xml version="1.0" encoding="UTF-8"?>
<svg id="Layer_2" data-name="Layer 2" xmlns="http://www.w3.org/2000/svg" viewBox="0 0 151.19 214.53">
  <defs>
    <style>
      .cls-1 {
        fill: #333;
      }

      .cls-2 {
        fill: #415944;
      }

      .cls-3 {
        fill: #48754d;
      }

      .cls-4 {
        fill: #383f39;
      }

      .cls-5 {
        fill: #3c4b3e;
      }

      .cls-6 {
        fill: #4b8450;
      }

      .cls-7 {
        fill: #456748;
      }

      .cls-8 {
        fill: #4eb857;
      }

      .cls-9 {
        fill: #4ea454;
      }

      .cls-10 {
        fill: #4d9453;
      }
    </style>
  </defs>
  <g id="Layer_1-2" data-name="Layer 1">
    <g>
      <path class="cls-1" d="m151.19,0v214.45c-25.52,2.35-50.96-45.7-38.35-69.75.46-.89.98-1.76,1.56-2.58.6-.86,1.17-1.75,1.73-2.68,1.46-2.49,2.76-5.21,3.86-8.14,1.43-3.78,2.54-7.88,3.3-12.21.04-.22.08-.43.11-.65.3-1.73.53-3.5.71-5.3.19-1.91.32-3.86.38-5.83.06-2,.05-4.03-.03-6.08h0c-1.39-35.74-24.58-76.69-82.69-78.58C16.62,21.83,4.01,12.24,0,0h151.19Z"/>
      <path class="cls-4" d="m151.19,0v198.01c-20.09,1.92-40.14-30.1-38.35-53.31.31-4.15,1.32-8.01,3.15-11.35.38-.69.79-1.36,1.24-2,.78-1.11,1.51-2.29,2.2-3.53,1.49-2.7,2.78-5.69,3.82-8.91.06-.16.11-.31.15-.47.94-2.94,1.67-6.06,2.2-9.32,0-.01.01-.02,0-.03.23-1.39.42-2.8.56-4.24.04-.35.07-.71.1-1.06.18-1.96.28-3.96.3-5.98.03-1.68-.01-3.38-.1-5.09-1.64-32.7-23.11-69.74-76.16-71.46C26.86,20.5,15.24,11.46,11.68,0h139.51Z"/>
      <path class="cls-5" d="m151.19,0v181.57c-16.54,1.62-33.07-21.92-35.06-42.13-.2-2.08-.25-4.11-.14-6.09.26-4.19,1.27-8.07,3.19-11.37.27-.48.57-.94.88-1.39.97-1.39,1.86-2.89,2.68-4.49.48-.95.94-1.94,1.37-2.96.54-1.29,1.04-2.63,1.49-4.02,0-.01.01-.02,0-.03.31-.93.59-1.89.85-2.86.55-2.05.99-4.19,1.34-6.4.27-1.78.48-3.61.62-5.46.15-2,.22-4.04.19-6.11-.3-30.61-19.6-66.76-69.77-68.4C37.1,19.15,26.48,10.68,23.37,0h127.82Z"/>
      <path class="cls-2" d="m151.19,0v165.13c-13.84,1.42-27.69-16.62-31.2-33.83-.23-1.17-.42-2.33-.56-3.48-.24-1.99-.33-3.94-.25-5.84.17-4.21,1.18-8.11,3.2-11.35.16-.27.34-.54.52-.8.56-.8,1.09-1.64,1.59-2.52.56-.97,1.08-1.99,1.56-3.06.08-.15.15-.3.21-.46.57-1.26,1.08-2.59,1.53-3.96.71-2.13,1.3-4.39,1.75-6.73.17-.86.31-1.73.44-2.61.27-1.79.45-3.63.56-5.5.12-2.01.14-4.06.07-6.14-.95-27.39-18.65-58.93-63.25-60.38-20.01-.65-29.64-8.57-32.29-18.47h116.12Z"/>
      <path class="cls-7" d="m151.19,0v148.69c-12.24,1.32-24.5-14.36-27.9-29.6,0-.06-.03-.12-.04-.18-.21-.94-.38-1.88-.51-2.81-.27-1.86-.4-3.69-.36-5.47.06-3.42.72-6.63,2.08-9.4h0c.34-.69.71-1.33,1.13-1.95.04-.07.09-.14.14-.21.28-.41.56-.83.83-1.26.67-1.08,1.29-2.23,1.85-3.44.34-.7.65-1.43.94-2.18.23-.55.44-1.12.63-1.7.99-2.86,1.73-5.98,2.17-9.27.11-.75.2-1.51.28-2.28h0c.1-1.12.18-2.25.21-3.39.07-1.72.06-3.47-.03-5.24-1.22-24.35-17.22-51.94-56.72-53.23-18.3-.59-26.93-7.96-29.1-17.08h104.4Z"/>
      <path class="cls-3" d="m151.19,0v132.25c-10.82,1.23-21.68-12.55-24.74-26.02-.11-.46-.21-.92-.29-1.38-.04-.2-.08-.4-.11-.6-.29-1.68-.45-3.35-.46-4.97-.02-2.31.26-4.53.87-6.56.49-1.6,1.18-3.08,2.11-4.41.01-.02.02-.03.03-.05.08-.11.16-.23.23-.35.62-.91,1.19-1.89,1.71-2.92.6-1.18,1.14-2.44,1.61-3.77.17-.45.32-.91.47-1.37.79-2.49,1.37-5.17,1.72-7.98.24-1.89.37-3.83.38-5.81.22-22.29-13.55-49.18-50.3-50.37-16.58-.54-24.19-7.35-25.89-15.69h92.66Z"/>
      <path class="cls-6" d="m151.19,0v115.81c-9.46,1.16-18.98-10.93-21.65-22.71-.07-.31-.13-.61-.19-.91-.28-1.44-.46-2.88-.52-4.28-.14-3.33.4-6.46,1.78-9.06.23-.45.5-.88.79-1.3.24-.35.48-.71.7-1.08.19-.3.37-.61.54-.92.64-1.14,1.21-2.37,1.7-3.68.58-1.52,1.06-3.14,1.44-4.85.32-1.44.57-2.94.73-4.49.21-1.95.3-3.96.24-6-.48-19.07-12.69-41.22-43.8-42.23-14.86-.48-21.45-6.76-22.67-14.3h80.91Z"/>
      <path class="cls-10" d="m151.19,0v99.37c-8.14,1.09-16.36-9.38-18.57-19.52-.07-.3-.14-.61-.19-.91h0c-.16-.84-.27-1.66-.33-2.47-.17-2.18-.03-4.27.51-6.16.36-1.28.9-2.47,1.63-3.52.17-.24.33-.48.48-.73.24-.38.47-.77.68-1.17.41-.74.78-1.53,1.11-2.36,1.13-2.76,1.87-5.96,2.16-9.37.01-.07.01-.13.01-.2.14-1.66.17-3.37.07-5.1-.81-16-11.32-34.11-37.27-34.95-13.14-.43-18.68-6.17-19.42-12.91h69.13Z"/>
      <path class="cls-9" d="m151.19,0v82.92c-6.71,1.02-13.51-7.54-15.41-15.9-.17-.72-.29-1.43-.38-2.13-.4-3.1-.04-6.07,1.35-8.36.09-.18.2-.35.32-.51.6-.86,1.14-1.82,1.6-2.86.01-.03.03-.05.03-.08,1.19-2.68,1.92-5.89,2.1-9.33.73-13.9-7.5-31.48-30.79-32.24-11.4-.37-15.88-5.58-16.1-11.51h57.28Z"/>
      <path class="cls-8" d="m105.85,0h45.34v66.48c-5.58.97-11.27-6.49-12.49-13.4-.01-.04-.01-.08-.02-.12-.3-1.79-.31-3.55.07-5.1.24-.95.61-1.83,1.15-2.6.33-.47.63-.97.9-1.51,5.34-10.34,1.26-32.86-22.26-33.63-9.66-.31-13.03-5.03-12.69-10.12Z"/>
    </g>
  </g>
</svg>