<?xml version="1.0" encoding="UTF-8"?>
<svg id="Layer_2" data-name="Layer 2" xmlns="http://www.w3.org/2000/svg" viewBox="0 0 500.03 500">
  <defs>
    <style>
      .cls-1 {
        fill: #4eb857;
      }
    </style>
  </defs>
  <g id="Layer_1-2" data-name="Layer 1">
    <g>
      <path class="cls-1" d="m392.07,310.39c-135.62,23.17-165.73,51.41-189.11,183.49-1.44,8.16-13.09,8.16-14.54,0-22.98-129.84-52.47-159.32-182.3-182.3-8.16-1.44-8.16-13.09,0-14.54,129.84-22.98,159.32-52.47,182.3-182.3,1.44-8.16,13.09-8.16,14.54,0,23.37,132.08,53.48,160.31,189.11,183.49,6.84,1.17,6.84,11,0,12.17Z"/>
      <path class="cls-1" d="m494.43,106.07c-56.98,11.96-74.48,29.46-86.44,86.44-1.57,7.46-12.47,7.46-14.03,0-11.85-56.47-29.14-74.16-84.89-86.11-7.82-1.68-7.82-13.01,0-14.69,55.76-11.95,73.04-29.65,84.89-86.11,1.57-7.46,12.47-7.46,14.03,0,11.96,56.98,29.46,74.48,86.44,86.44,7.46,1.57,7.46,12.47,0,14.03Z"/>
    </g>
  </g>
</svg>