<?xml version="1.0" encoding="UTF-8"?>
<svg id="Layer_1" data-name="Layer 1" xmlns="http://www.w3.org/2000/svg" viewBox="0 0 64.39 64">
  <defs>
    <style>
      .cls-1 {
        fill: #4eb857;
      }
    </style>
  </defs>
  <path class="cls-1" d="m50.19,39.73c-17.36,2.97-21.21,6.58-24.21,23.49-.18,1.04-1.68,1.04-1.86,0-2.94-16.62-6.72-20.39-23.33-23.33-1.04-.18-1.04-1.68,0-1.86,16.62-2.94,20.39-6.72,23.33-23.33.18-1.04,1.68-1.04,1.86,0,2.99,16.91,6.85,20.52,24.21,23.49.88.15.88,1.41,0,1.56Z"/>
  <path class="cls-1" d="m63.8,11.11c-5.97,1.25-7.8,3.09-9.06,9.06-.16.78-1.31.78-1.47,0-1.24-5.92-3.05-7.77-8.89-9.02-.82-.18-.82-1.36,0-1.54,5.84-1.25,7.65-3.11,8.89-9.02.16-.78,1.31-.78,1.47,0,1.25,5.97,3.09,7.8,9.06,9.06.78.16.78,1.31,0,1.47Z"/>
</svg>